<svg width="459" height="261" viewBox="0 0 459 261" fill="none" xmlns="http://www.w3.org/2000/svg">
<rect width="459" height="260" rx="12" fill="url(#paint0_linear_227_897)"/>
<mask id="mask0_227_897" style="mask-type:alpha" maskUnits="userSpaceOnUse" x="0" y="0" width="459" height="260">
<rect width="459" height="260" rx="12" fill="url(#paint1_linear_227_897)"/>
</mask>
<g mask="url(#mask0_227_897)">
<g filter="url(#filter0_d_227_897)">
<path d="M52.7302 44.2567C52.7302 38.7575 58.0284 34.2996 64.5642 34.2996H394.438C400.974 34.2996 406.272 38.7575 406.272 44.2567V277.004C406.272 282.504 400.974 286.961 394.438 286.961H64.5642C58.0284 286.961 52.7302 282.504 52.7302 277.004V44.2567Z" fill="white"/>
</g>
<path fill-rule="evenodd" clip-rule="evenodd" d="M69.4635 107.85C69.4635 106.817 70.2959 105.98 71.3226 105.98H103.547C104.574 105.98 105.406 106.817 105.406 107.85C105.406 108.883 104.574 109.72 103.547 109.72H71.3226C70.2959 109.72 69.4635 108.883 69.4635 107.85Z" fill="#EAEFFF"/>
<path fill-rule="evenodd" clip-rule="evenodd" d="M69.4635 131.536C69.4635 130.503 70.2959 129.666 71.3226 129.666H103.547C104.574 129.666 105.406 130.503 105.406 131.536C105.406 132.569 104.574 133.406 103.547 133.406H71.3226C70.2959 133.406 69.4635 132.569 69.4635 131.536Z" fill="#EAEFFF"/>
<path fill-rule="evenodd" clip-rule="evenodd" d="M69.4635 166.441C69.4635 165.409 70.2959 164.572 71.3226 164.572H103.547C104.574 164.572 105.406 165.409 105.406 166.441C105.406 167.474 104.574 168.311 103.547 168.311H71.3226C70.2959 168.311 69.4635 167.474 69.4635 166.441Z" fill="#EAEFFF"/>
<path fill-rule="evenodd" clip-rule="evenodd" d="M69.4635 119.069C69.4635 118.037 70.2959 117.199 71.3226 117.199H94.8714C95.8982 117.199 96.7306 118.037 96.7306 119.069C96.7306 120.102 95.8982 120.939 94.8714 120.939H71.3226C70.2959 120.939 69.4635 120.102 69.4635 119.069Z" fill="#EAEFFF"/>
<path fill-rule="evenodd" clip-rule="evenodd" d="M69.4635 155.222C69.4635 154.189 70.2959 153.352 71.3226 153.352H94.8714C95.8982 153.352 96.7306 154.189 96.7306 155.222C96.7306 156.254 95.8982 157.092 94.8714 157.092H71.3226C70.2959 157.092 69.4635 156.254 69.4635 155.222Z" fill="#EAEFFF"/>
<path fill-rule="evenodd" clip-rule="evenodd" d="M69.4635 142.755C69.4635 141.722 70.2959 140.885 71.3226 140.885H110.984C112.011 140.885 112.843 141.722 112.843 142.755C112.843 143.788 112.011 144.625 110.984 144.625H71.3226C70.2959 144.625 69.4635 143.788 69.4635 142.755Z" fill="#EAEFFF"/>
<path d="M52.3869 44.4611C52.3869 38.849 57.6955 34.2996 64.2439 34.2996H394.758C401.307 34.2996 406.615 38.849 406.615 44.4611V62.2437H52.3869V44.4611Z" fill="#C3B5F8"/>
<path d="M77.5177 48.6357C77.5177 51.7339 75.0206 54.2455 71.9403 54.2455C68.86 54.2455 66.363 51.7339 66.363 48.6357C66.363 45.5375 68.86 43.0259 71.9403 43.0259C75.0206 43.0259 77.5177 45.5375 77.5177 48.6357Z" fill="white" fill-opacity="0.5"/>
<path d="M94.8696 48.6357C94.8696 51.7339 92.3725 54.2455 89.2922 54.2455C86.2119 54.2455 83.7148 51.7339 83.7148 48.6357C83.7148 45.5375 86.2119 43.0259 89.2922 43.0259C92.3725 43.0259 94.8696 45.5375 94.8696 48.6357Z" fill="white" fill-opacity="0.5"/>
<path d="M112.222 48.6357C112.222 51.7339 109.725 54.2455 106.645 54.2455C103.564 54.2455 101.067 51.7339 101.067 48.6357C101.067 45.5375 103.564 43.0259 106.645 43.0259C109.725 43.0259 112.222 45.5375 112.222 48.6357Z" fill="white" fill-opacity="0.5"/>
<path d="M141.523 114.884C141.523 112.82 143.51 111.146 145.961 111.146H387.127C389.579 111.146 391.566 112.82 391.566 114.884V266.922C391.566 268.987 389.579 270.66 387.127 270.66H145.961C143.51 270.66 141.523 268.987 141.523 266.922V114.884Z" fill="#F6F8FF"/>
<path d="M68.8423 77.9313C68.8423 75.8658 70.507 74.1914 72.5605 74.1914H117.179C119.233 74.1914 120.898 75.8658 120.898 77.9313V89.1508C120.898 91.2163 119.233 92.8907 117.179 92.8907H72.5605C70.507 92.8907 68.8423 91.2163 68.8423 89.1508V77.9313Z" fill="#C3D1F8"/>
<path fill-rule="evenodd" clip-rule="evenodd" d="M139.786 77.3801C139.786 76.4155 140.563 75.6335 141.522 75.6335H191.299C192.258 75.6335 193.036 76.4155 193.036 77.3801C193.036 78.3446 192.258 79.1266 191.299 79.1266H141.522C140.563 79.1266 139.786 78.3446 139.786 77.3801Z" fill="#C9D6F9"/>
<path fill-rule="evenodd" clip-rule="evenodd" d="M156.571 130.358C157.53 130.358 158.308 131.14 158.308 132.104L158.308 259.017C158.308 259.982 157.53 260.764 156.571 260.764C155.612 260.764 154.835 259.982 154.835 259.017L154.835 132.104C154.835 131.14 155.612 130.358 156.571 130.358Z" fill="#D8EEFB"/>
<path fill-rule="evenodd" clip-rule="evenodd" d="M377.096 259.017C377.096 259.982 376.319 260.764 375.36 260.764H158.887C157.928 260.764 157.151 259.982 157.151 259.017C157.151 258.053 157.928 257.271 158.887 257.271H375.36C376.319 257.271 377.096 258.053 377.096 259.017Z" fill="#D8EEFB"/>
<path fill-rule="evenodd" clip-rule="evenodd" d="M139.786 89.0239C139.786 88.0593 140.563 87.2773 141.522 87.2773H221.397C222.356 87.2773 223.134 88.0593 223.134 89.0239C223.134 89.9884 222.356 90.7704 221.397 90.7704H141.522C140.563 90.7704 139.786 89.9884 139.786 89.0239Z" fill="#C9D6F9"/>
<path d="M226.428 214.982L166.991 239.549V259.017H367.257V161.213L303.536 192.733L226.428 214.982Z" fill="url(#paint2_linear_227_897)"/>
<path fill-rule="evenodd" clip-rule="evenodd" d="M367.654 160.439C368.079 161.304 367.726 162.351 366.866 162.778L304.096 193.958L226.959 216.266L172.84 237.935C171.949 238.292 170.939 237.854 170.584 236.958C170.23 236.062 170.665 235.046 171.556 234.69L225.834 212.957L302.837 190.687L365.328 159.646C366.188 159.219 367.229 159.574 367.654 160.439Z" fill="#83A2FD"/>
<path d="M371.888 160.048C371.888 163.264 369.296 165.87 366.1 165.87C362.903 165.87 360.312 163.264 360.312 160.048C360.312 156.833 362.903 154.227 366.1 154.227C369.296 154.227 371.888 156.833 371.888 160.048Z" fill="#83A2FD"/>
<path d="M309.376 190.321C309.376 193.536 306.784 196.143 303.588 196.143C300.391 196.143 297.799 193.536 297.799 190.321C297.799 187.106 300.391 184.499 303.588 184.499C306.784 184.499 309.376 187.106 309.376 190.321Z" fill="#83A2FD"/>
<path d="M232.973 213.608C232.973 216.824 230.382 219.43 227.185 219.43C223.989 219.43 221.397 216.824 221.397 213.608C221.397 210.393 223.989 207.787 227.185 207.787C230.382 207.787 232.973 210.393 232.973 213.608Z" fill="#83A2FD"/>
<path d="M177.408 235.73C177.408 238.946 174.817 241.552 171.62 241.552C168.423 241.552 165.832 238.946 165.832 235.73C165.832 232.515 168.423 229.909 171.62 229.909C174.817 229.909 177.408 232.515 177.408 235.73Z" fill="#83A2FD"/>
<path d="M354.74 133.753C352.292 133.742 350.641 135.355 350.652 137.569C350.657 139.623 352.073 141.112 354.013 141.112C355.215 141.112 356.284 140.526 356.771 139.558H356.845C356.84 141.741 356.086 143.068 354.66 143.068C353.821 143.068 353.217 142.606 353.04 141.805H350.758C350.972 143.66 352.469 145.062 354.66 145.062C357.369 145.062 359.117 142.859 359.111 139.123C359.106 135.135 356.99 133.764 354.74 133.753ZM354.756 135.581C355.819 135.581 356.605 136.451 356.616 137.5C356.621 138.553 355.793 139.424 354.734 139.424C353.666 139.424 352.901 138.585 352.896 137.505C352.885 136.43 353.682 135.581 354.756 135.581Z" fill="#435589"/>
<path d="M364.674 133.753C362.227 133.742 360.575 135.355 360.586 137.569C360.592 139.623 362.008 141.112 363.948 141.112C365.15 141.112 366.219 140.526 366.705 139.558H366.78C366.775 141.741 366.021 143.068 364.594 143.068C363.755 143.068 363.151 142.606 362.975 141.805H360.693C360.907 143.66 362.403 145.062 364.594 145.062C367.304 145.062 369.051 142.859 369.046 139.123C369.041 135.135 366.924 133.764 364.674 133.753ZM364.69 135.581C365.754 135.581 366.539 136.451 366.55 137.5C366.556 138.553 365.727 139.424 364.669 139.424C363.6 139.424 362.836 138.585 362.831 137.505C362.82 136.43 363.616 135.581 364.69 135.581Z" fill="#435589"/>
<path d="M376.64 142.848C376.645 144.17 377.484 145.294 379.05 145.294C380.6 145.294 381.465 144.17 381.46 142.848V142.267C381.465 140.934 380.621 139.822 379.05 139.822C377.506 139.822 376.645 140.945 376.64 142.267V142.848ZM371.023 136.548C371.028 137.87 371.868 138.983 373.428 138.983C374.983 138.983 375.849 137.881 375.844 136.548V135.968C375.849 134.635 375.004 133.522 373.428 133.522C371.9 133.522 371.028 134.635 371.023 135.968V136.548ZM371.547 144.912H372.942L380.466 133.904H379.071L371.547 144.912ZM378.195 142.267C378.2 141.741 378.409 141.198 379.05 141.198C379.723 141.198 379.9 141.741 379.894 142.267V142.848C379.9 143.375 379.702 143.907 379.05 143.907C378.398 143.907 378.2 143.359 378.195 142.848V142.267ZM372.589 135.968C372.594 135.457 372.792 134.898 373.428 134.898C374.101 134.898 374.283 135.441 374.278 135.968V136.548C374.283 137.075 374.08 137.607 373.428 137.607C372.797 137.607 372.594 137.075 372.589 136.548V135.968Z" fill="#435589"/>
<path d="M301.232 83.2017H299.635L297.334 84.689V86.2354L299.5 84.8436H299.554V92.5165H301.232V83.2017Z" fill="#435589"/>
<path d="M307.006 92.6938C309.24 92.6984 310.574 90.9246 310.574 87.8682C310.574 84.83 309.231 83.0744 307.006 83.0744C304.781 83.0744 303.443 84.8254 303.438 87.8682C303.438 90.92 304.772 92.6938 307.006 92.6938ZM307.006 91.2703C305.853 91.2703 305.13 90.1059 305.134 87.8682C305.139 85.6487 305.858 84.4798 307.006 84.4798C308.159 84.4798 308.878 85.6487 308.883 87.8682C308.883 90.1059 308.164 91.2703 307.006 91.2703Z" fill="#435589"/>
<path d="M311.909 90.7881H316.327V92.5165H317.928V90.7881H319.112V89.4009H317.928V83.2017H315.839L311.909 89.4464V90.7881ZM316.345 89.4009H313.627V89.3282L316.273 85.112H316.345V89.4009Z" fill="#435589"/>
<path d="M323.98 92.6938C326.214 92.6984 327.548 90.9246 327.548 87.8682C327.548 84.83 326.205 83.0744 323.98 83.0744C321.755 83.0744 320.417 84.8254 320.412 87.8682C320.412 90.92 321.746 92.6938 323.98 92.6938ZM323.98 91.2703C322.827 91.2703 322.104 90.1059 322.108 87.8682C322.113 85.6487 322.832 84.4798 323.98 84.4798C325.133 84.4798 325.852 85.6487 325.857 87.8682C325.857 90.1059 325.138 91.2703 323.98 91.2703Z" fill="#435589"/>
<path d="M332.473 92.6938C334.707 92.6984 336.041 90.9246 336.041 87.8682C336.041 84.83 334.698 83.0744 332.473 83.0744C330.249 83.0744 328.91 84.8254 328.906 87.8682C328.906 90.92 330.24 92.6938 332.473 92.6938ZM332.473 91.2703C331.32 91.2703 330.597 90.1059 330.601 87.8682C330.606 85.6487 331.325 84.4798 332.473 84.4798C333.627 84.4798 334.346 85.6487 334.35 87.8682C334.35 90.1059 333.631 91.2703 332.473 91.2703Z" fill="#435589"/>
<path d="M342.47 83.2017H340.793V92.5165H342.47V83.2017Z" fill="#435589"/>
<path d="M345.852 88.4231C345.852 87.4134 346.458 86.8312 347.321 86.8312C348.167 86.8312 348.673 87.3906 348.673 88.323V92.5165H350.31V88.0683C350.315 86.3946 349.365 85.4395 347.932 85.4395C346.892 85.4395 346.177 85.9398 345.861 86.7175H345.779V85.5304H344.215V92.5165H345.852V88.4231Z" fill="#435589"/>
<path d="M357.93 85.5304H356.189L354.588 90.7199H354.516L352.919 85.5304H351.174L353.647 92.5165H355.456L357.93 85.5304Z" fill="#435589"/>
<path d="M361.856 92.6529C363.891 92.6529 365.184 91.2111 365.184 89.0507C365.184 86.8858 363.891 85.4395 361.856 85.4395C359.821 85.4395 358.528 86.8858 358.528 89.0507C358.528 91.2111 359.821 92.6529 361.856 92.6529ZM361.865 91.3339C360.739 91.3339 360.187 90.3242 360.187 89.0462C360.187 87.7681 360.739 86.7448 361.865 86.7448C362.973 86.7448 363.524 87.7681 363.524 89.0462C363.524 90.3242 362.973 91.3339 361.865 91.3339Z" fill="#435589"/>
<path d="M366.573 92.5165H368.21V85.5304H366.573V92.5165ZM367.396 84.5389C367.916 84.5389 368.341 84.1387 368.341 83.6475C368.341 83.1517 367.916 82.7515 367.396 82.7515C366.872 82.7515 366.447 83.1517 366.447 83.6475C366.447 84.1387 366.872 84.5389 367.396 84.5389Z" fill="#435589"/>
<path d="M372.923 92.6529C374.669 92.6529 375.781 91.6114 375.899 90.1287H374.334C374.194 90.8791 373.656 91.3112 372.937 91.3112C371.915 91.3112 371.255 90.4516 371.255 89.0234C371.255 87.6135 371.928 86.7675 372.937 86.7675C373.723 86.7675 374.207 87.2769 374.334 87.9501H375.899C375.785 86.4355 374.61 85.4395 372.914 85.4395C370.879 85.4395 369.595 86.9176 369.595 89.0507C369.595 91.1656 370.848 92.6529 372.923 92.6529Z" fill="#435589"/>
<path d="M380.318 92.6529C381.936 92.6529 383.049 91.857 383.338 90.6426L381.81 90.4698C381.588 91.061 381.046 91.3703 380.34 91.3703C379.282 91.3703 378.581 90.6699 378.568 89.4737H383.406V88.9689C383.406 86.5174 381.941 85.4395 380.232 85.4395C378.242 85.4395 376.944 86.9085 376.944 89.0644C376.944 91.2566 378.224 92.6529 380.318 92.6529ZM378.572 88.3639C378.622 87.4725 379.278 86.722 380.254 86.722C381.195 86.722 381.828 87.4134 381.837 88.3639H378.572Z" fill="#435589"/>
<path d="M390.28 87.377C390.054 86.1945 389.114 85.4395 387.486 85.4395C385.813 85.4395 384.673 86.2672 384.678 87.5589C384.673 88.5777 385.297 89.2509 386.631 89.5283L387.816 89.7784C388.454 89.9194 388.752 90.1787 388.752 90.5744C388.752 91.0519 388.237 91.4112 387.459 91.4112C386.708 91.4112 386.22 91.0838 386.08 90.4561L384.483 90.6108C384.687 91.8934 385.759 92.6529 387.463 92.6529C389.2 92.6529 390.425 91.7478 390.43 90.4243C390.425 89.4282 389.788 88.8188 388.476 88.5322L387.291 88.2775C386.586 88.1183 386.306 87.8727 386.31 87.468C386.306 86.9949 386.826 86.6675 387.509 86.6675C388.264 86.6675 388.662 87.0814 388.788 87.5407L390.28 87.377Z" fill="#435589"/>
<path d="M171.01 219.671C173.762 219.671 175.424 217.564 175.43 213.936C175.435 210.334 173.752 208.27 171.01 208.27C168.263 208.27 166.596 210.329 166.591 213.936C166.58 217.553 168.253 219.666 171.01 219.671ZM171.01 217.741C169.754 217.741 168.942 216.473 168.947 213.936C168.953 211.436 169.76 210.179 171.01 210.179C172.255 210.179 173.068 211.436 173.068 213.936C173.073 216.473 172.261 217.741 171.01 217.741Z" fill="#435589"/>
<path d="M183.07 217.365C183.076 218.687 183.915 219.811 185.481 219.811C187.03 219.811 187.896 218.687 187.891 217.365V216.785C187.896 215.452 187.052 214.339 185.481 214.339C183.936 214.339 183.076 215.462 183.07 216.785V217.365ZM177.454 211.066C177.459 212.388 178.298 213.5 179.859 213.5C181.414 213.5 182.279 212.399 182.274 211.066V210.485C182.279 209.152 181.435 208.039 179.859 208.039C178.33 208.039 177.459 209.152 177.454 210.485V211.066ZM177.978 219.429H179.372L186.897 208.421H185.502L177.978 219.429ZM184.626 216.785C184.631 216.258 184.839 215.715 185.481 215.715C186.154 215.715 186.33 216.258 186.325 216.785V217.365C186.33 217.892 186.133 218.424 185.481 218.424C184.829 218.424 184.631 217.876 184.626 217.365V216.785ZM179.02 210.485C179.025 209.974 179.223 209.415 179.859 209.415C180.532 209.415 180.714 209.958 180.708 210.485V211.066C180.714 211.592 180.511 212.124 179.859 212.124C179.228 212.124 179.025 211.592 179.02 211.066V210.485Z" fill="#435589"/>
</g>
<rect x="52.3855" y="215" width="354.228" height="45.1633" fill="url(#paint3_linear_227_897)"/>
<defs>
<filter id="filter0_d_227_897" x="32.7302" y="18.2996" width="393.542" height="292.662" filterUnits="userSpaceOnUse" color-interpolation-filters="sRGB">
<feFlood flood-opacity="0" result="BackgroundImageFix"/>
<feColorMatrix in="SourceAlpha" type="matrix" values="0 0 0 0 0 0 0 0 0 0 0 0 0 0 0 0 0 0 127 0" result="hardAlpha"/>
<feOffset dy="4"/>
<feGaussianBlur stdDeviation="10"/>
<feComposite in2="hardAlpha" operator="out"/>
<feColorMatrix type="matrix" values="0 0 0 0 0.0491667 0 0 0 0 0.0997381 0 0 0 0 0.245833 0 0 0 0.1 0"/>
<feBlend mode="normal" in2="BackgroundImageFix" result="effect1_dropShadow_227_897"/>
<feBlend mode="normal" in="SourceGraphic" in2="effect1_dropShadow_227_897" result="shape"/>
</filter>
<linearGradient id="paint0_linear_227_897" x1="229.5" y1="0" x2="229.5" y2="260" gradientUnits="userSpaceOnUse">
<stop stop-color="#DDEAFF"/>
<stop offset="1" stop-color="#D2D4F4"/>
</linearGradient>
<linearGradient id="paint1_linear_227_897" x1="229.5" y1="0" x2="229.5" y2="260" gradientUnits="userSpaceOnUse">
<stop stop-color="#ADBAFF"/>
<stop offset="1" stop-color="#7098FF"/>
</linearGradient>
<linearGradient id="paint2_linear_227_897" x1="248.918" y1="150.151" x2="248.687" y2="259.017" gradientUnits="userSpaceOnUse">
<stop stop-color="#95B0FF"/>
<stop offset="1" stop-color="#95B0FF" stop-opacity="0"/>
</linearGradient>
<linearGradient id="paint3_linear_227_897" x1="229.5" y1="297.197" x2="229.5" y2="237.582" gradientUnits="userSpaceOnUse">
<stop stop-color="#ACBAFF" stop-opacity="0.7"/>
<stop offset="1" stop-color="#ACBAFF" stop-opacity="0"/>
</linearGradient>
</defs>
</svg>
