<svg width="460" height="261" viewBox="0 0 460 261" fill="none" xmlns="http://www.w3.org/2000/svg">
<rect y="0.09375" width="460" height="260" rx="20" fill="#F3F9FF"/>
<mask id="mask0_163_1989" style="mask-type:alpha" maskUnits="userSpaceOnUse" x="1" y="0" width="459" height="261">
<rect x="1" y="0.90625" width="459" height="260" rx="12" fill="url(#paint0_linear_163_1989)"/>
</mask>
<g mask="url(#mask0_163_1989)">
<g opacity="0.4">
<path fill-rule="evenodd" clip-rule="evenodd" d="M245.22 161.473C233.928 158.645 220.416 149.541 211.134 123.799C205.494 108.155 197.464 96.7294 187.423 89.1932C177.298 81.5937 165.953 78.5712 154.927 78.439C133.538 78.1823 113.048 88.714 100.853 97.8323C95.884 101.547 94.9973 108.436 98.8724 113.219C102.747 118.002 109.917 118.867 114.886 115.152C124.996 107.593 140.522 100.199 154.686 100.369C161.436 100.45 167.751 102.229 173.4 106.468C179.133 110.771 184.988 118.223 189.575 130.944C200.748 161.932 219.178 177.603 239.504 182.695C258.998 187.579 277.744 182.077 289.136 175.725C294.582 172.688 296.426 165.979 293.256 160.739C290.086 155.499 283.102 153.713 277.656 156.75C269.89 161.08 257.343 164.511 245.22 161.473Z" fill="url(#paint1_linear_163_1989)"/>
<path fill-rule="evenodd" clip-rule="evenodd" d="M251.067 148.537C239.775 145.708 226.264 136.605 216.982 110.862C211.342 95.2186 203.311 83.7929 193.271 76.2566C183.146 68.6572 171.801 65.6347 160.774 65.5024C139.386 65.2458 118.896 75.7775 106.7 84.8957C101.732 88.6109 100.845 95.4999 104.72 100.283C108.595 105.065 115.764 105.931 120.733 102.216C130.844 94.6561 146.369 87.2623 160.533 87.4322C167.283 87.5132 173.599 89.292 179.247 93.5318C184.98 97.8348 190.836 105.286 195.423 118.008C206.596 148.996 225.026 164.667 245.352 169.759C264.845 174.642 283.592 169.14 294.983 162.788C300.429 159.752 302.274 153.042 299.104 147.802C295.934 142.563 288.95 140.776 283.504 143.813C275.738 148.143 263.191 151.574 251.067 148.537Z" fill="url(#paint2_linear_163_1989)"/>
</g>
<g filter="url(#filter0_d_163_1989)">
<path d="M-75.2584 25.0153C-75.2584 21.1961 -71.6503 18.1001 -67.1995 18.1001H157.442C161.893 18.1001 165.501 21.1961 165.501 25.0153V186.658C165.501 190.477 161.893 193.573 157.442 193.573H-67.1995C-71.6503 193.573 -75.2584 190.477 -75.2584 186.658V25.0153Z" fill="white"/>
</g>
<path d="M-75.2584 26.0761C-75.2584 21.6711 -71.6503 18.1001 -67.1995 18.1001H157.442C161.893 18.1001 165.501 21.6711 165.501 26.0761V40.0342H-75.2584V26.0761Z" fill="#83A2FD"/>
<path d="M-60.0078 71.2622C-60.0078 70.1671 -58.3367 69.2793 -56.2754 69.2793H146.516C148.577 69.2793 150.248 70.1671 150.248 71.2622V151.899C150.248 152.994 148.577 153.882 146.516 153.882H-56.2754C-58.3368 153.882 -60.0078 152.994 -60.0078 151.899V71.2622Z" fill="#F3F6FF"/>
<path fill-rule="evenodd" clip-rule="evenodd" d="M-12.0722 79.5191C-12.0722 78.7122 -11.3899 78.0581 -10.5483 78.0581H15.8648C16.7064 78.0581 17.3887 78.7122 17.3887 79.5191C17.3887 80.326 16.7064 80.9801 15.8648 80.9801H-10.5483C-11.3899 80.9801 -12.0722 80.326 -12.0722 79.5191Z" fill="#9C75EE"/>
<path fill-rule="evenodd" clip-rule="evenodd" d="M76.1694 79.5191C76.1694 78.7122 76.8517 78.0581 77.6933 78.0581H104.106C104.948 78.0581 105.63 78.7122 105.63 79.5191C105.63 80.326 104.948 80.9801 104.106 80.9801H77.6933C76.8517 80.9801 76.1694 80.326 76.1694 79.5191Z" fill="#75D1EE"/>
<path fill-rule="evenodd" clip-rule="evenodd" d="M-12.0722 100.947C-12.0722 100.14 -11.3899 99.4861 -10.5483 99.4861H-0.389431C0.452161 99.4861 1.13441 100.14 1.13441 100.947C1.13441 101.754 0.452161 102.408 -0.389431 102.408H-10.5483C-11.3899 102.408 -12.0722 101.754 -12.0722 100.947Z" fill="#C3D1F8"/>
<path fill-rule="evenodd" clip-rule="evenodd" d="M-12.0722 121.401C-12.0722 120.594 -11.3899 119.94 -10.5483 119.94H6.72181C7.5634 119.94 8.24564 120.594 8.24564 121.401C8.24564 122.208 7.5634 122.862 6.72181 122.862H-10.5483C-11.3899 122.862 -12.0722 122.208 -12.0722 121.401Z" fill="#C3D1F8"/>
<path fill-rule="evenodd" clip-rule="evenodd" d="M-12.0722 141.855C-12.0722 141.048 -11.3899 140.394 -10.5483 140.394H1.64235C2.48394 140.394 3.16619 141.048 3.16619 141.855C3.16619 142.662 2.48394 143.316 1.64235 143.316H-10.5483C-11.3899 143.316 -12.0722 142.662 -12.0722 141.855Z" fill="#C3D1F8"/>
<path fill-rule="evenodd" clip-rule="evenodd" d="M32.5933 100.947C32.5933 100.14 33.2755 99.4863 34.1171 99.4863H48.3396C49.1812 99.4863 49.8634 100.14 49.8634 100.947C49.8634 101.754 49.1812 102.408 48.3396 102.408H34.1171C33.2755 102.408 32.5933 101.754 32.5933 100.947Z" fill="#C3D1F8"/>
<path fill-rule="evenodd" clip-rule="evenodd" d="M32.5933 141.855C32.5933 141.048 33.2755 140.394 34.1171 140.394H53.419C54.2606 140.394 54.9429 141.048 54.9429 141.855C54.9429 142.662 54.2606 143.316 53.419 143.316H34.1171C33.2755 143.316 32.5933 142.662 32.5933 141.855Z" fill="#C3D1F8"/>
<path fill-rule="evenodd" clip-rule="evenodd" d="M32.5933 121.92C32.5933 121.113 33.2755 120.459 34.1171 120.459H59.5144C60.356 120.459 61.0382 121.113 61.0382 121.92C61.0382 122.727 60.356 123.381 59.5144 123.381H34.1171C33.2755 123.381 32.5933 122.727 32.5933 121.92Z" fill="#C3D1F8"/>
<path fill-rule="evenodd" clip-rule="evenodd" d="M75.9155 100.947C75.9155 100.14 76.5977 99.4861 77.4393 99.4861H94.7094C95.551 99.4861 96.2333 100.14 96.2333 100.947C96.2333 101.754 95.551 102.408 94.7094 102.408H77.4393C76.5977 102.408 75.9155 101.754 75.9155 100.947Z" fill="#C3D1F8"/>
<path fill-rule="evenodd" clip-rule="evenodd" d="M118.655 100.947C118.655 100.14 119.337 99.4863 120.179 99.4863H137.449C138.29 99.4863 138.973 100.14 138.973 100.947C138.973 101.754 138.29 102.408 137.449 102.408H120.179C119.337 102.408 118.655 101.754 118.655 100.947Z" fill="#C3D1F8"/>
<path fill-rule="evenodd" clip-rule="evenodd" d="M75.9155 121.401C75.9155 120.594 76.5977 119.94 77.4393 119.94H100.805C101.646 119.94 102.329 120.594 102.329 121.401C102.329 122.208 101.646 122.862 100.805 122.862H77.4393C76.5977 122.862 75.9155 122.208 75.9155 121.401Z" fill="#C3D1F8"/>
<path fill-rule="evenodd" clip-rule="evenodd" d="M118.655 121.401C118.655 120.594 119.337 119.94 120.179 119.94H143.544C144.386 119.94 145.068 120.594 145.068 121.401C145.068 122.208 144.386 122.862 143.544 122.862H120.179C119.337 122.862 118.655 122.208 118.655 121.401Z" fill="#C3D1F8"/>
<path fill-rule="evenodd" clip-rule="evenodd" d="M75.9155 141.855C75.9155 141.048 76.5977 140.394 77.4393 140.394H88.6141C89.4557 140.394 90.1379 141.048 90.1379 141.855C90.1379 142.662 89.4557 143.316 88.6141 143.316H77.4393C76.5977 143.316 75.9155 142.662 75.9155 141.855Z" fill="#C3D1F8"/>
<path fill-rule="evenodd" clip-rule="evenodd" d="M118.655 141.855C118.655 141.048 119.337 140.394 120.179 140.394H131.353C132.195 140.394 132.877 141.048 132.877 141.855C132.877 142.662 132.195 143.316 131.353 143.316H120.179C119.337 143.316 118.655 142.662 118.655 141.855Z" fill="#C3D1F8"/>
<path fill-rule="evenodd" clip-rule="evenodd" d="M32.5933 79.5191C32.5933 78.7122 33.2755 78.0581 34.1171 78.0581H53.419C54.2606 78.0581 54.9429 78.7122 54.9429 79.5191C54.9429 80.326 54.2606 80.9801 53.419 80.9801H34.1171C33.2755 80.9801 32.5933 80.326 32.5933 79.5191Z" fill="#789AFF"/>
<path fill-rule="evenodd" clip-rule="evenodd" d="M118.655 79.5191C118.655 78.7122 119.337 78.0581 120.179 78.0581H139.481C140.322 78.0581 141.004 78.7122 141.004 79.5191C141.004 80.326 140.322 80.9801 139.481 80.9801H120.179C119.337 80.9801 118.655 80.326 118.655 79.5191Z" fill="#C8AEFF"/>
<path fill-rule="evenodd" clip-rule="evenodd" d="M-64.3638 91.2134C-64.3638 90.6366 -63.5422 90.1689 -62.5288 90.1689H152.773C153.786 90.1689 154.607 90.6366 154.607 91.2134C154.607 91.7903 153.786 92.2579 152.773 92.2579H-62.5288C-63.5422 92.2579 -64.3638 91.7903 -64.3638 91.2134Z" fill="white"/>
<path fill-rule="evenodd" clip-rule="evenodd" d="M-64.3638 111.581C-64.3638 110.716 -63.5422 110.014 -62.5288 110.014H152.773C153.786 110.014 154.607 110.716 154.607 111.581C154.607 112.446 153.786 113.148 152.773 113.148H-62.5288C-63.5422 113.148 -64.3638 112.446 -64.3638 111.581Z" fill="white"/>
<path fill-rule="evenodd" clip-rule="evenodd" d="M-64.3638 132.471C-64.3638 131.605 -63.5422 130.904 -62.5288 130.904H152.773C153.786 130.904 154.607 131.605 154.607 132.471C154.607 133.336 153.786 134.037 152.773 134.037H-62.5288C-63.5422 134.037 -64.3638 133.336 -64.3638 132.471Z" fill="white"/>
<path fill-rule="evenodd" clip-rule="evenodd" d="M-61.6411 58.8348C-61.6411 57.9695 -60.9095 57.2681 -60.007 57.2681H0.999918C1.90241 57.2681 2.63403 57.9695 2.63403 58.8348C2.63403 59.7001 1.90241 60.4015 0.999918 60.4015H-60.007C-60.9095 60.4015 -61.6411 59.7001 -61.6411 58.8348Z" fill="#EAEFFF"/>
<rect x="-58.9185" y="157.016" width="209.167" height="22.9786" rx="2" fill="#64BA8B" fill-opacity="0.3"/>
<path fill-rule="evenodd" clip-rule="evenodd" d="M90.7665 167.46C89.9249 167.46 89.2427 168.115 89.2427 168.921C89.2427 169.728 89.9249 170.382 90.7665 170.382H111.084C111.149 170.382 111.213 170.379 111.275 170.371C111.338 170.379 111.401 170.382 111.466 170.382H131.784C132.626 170.382 133.308 169.728 133.308 168.921C133.308 168.115 132.626 167.46 131.784 167.46H111.466C111.401 167.46 111.338 167.464 111.275 167.472C111.213 167.464 111.149 167.46 111.084 167.46H90.7665Z" fill="#64BA8B"/>
<path fill-rule="evenodd" clip-rule="evenodd" d="M24.4227 187.306C23.5202 187.306 22.7886 186.855 22.7886 186.299L22.7886 68.197C22.7886 67.6411 23.5202 67.1905 24.4227 67.1905C25.3252 67.1905 26.0568 67.6411 26.0568 68.197L26.0568 186.299C26.0568 186.855 25.3252 187.306 24.4227 187.306Z" fill="white"/>
<path fill-rule="evenodd" clip-rule="evenodd" d="M67.9979 187.306C67.0954 187.306 66.3638 186.855 66.3638 186.299L66.3638 68.197C66.3638 67.6411 67.0954 67.1905 67.9979 67.1905C68.9004 67.1905 69.632 67.6411 69.632 68.197L69.632 186.299C69.632 186.855 68.9004 187.306 67.9979 187.306Z" fill="white"/>
<path fill-rule="evenodd" clip-rule="evenodd" d="M111.576 157.016C110.674 157.016 109.942 156.679 109.942 156.263L109.942 67.9431C109.942 67.5273 110.674 67.1903 111.576 67.1903C112.479 67.1903 113.21 67.5273 113.21 67.9431L113.21 156.263C113.21 156.679 112.479 157.016 111.576 157.016Z" fill="white"/>
<g filter="url(#filter1_d_163_1989)">
<path d="M267.502 60.0028C267.502 55.3198 270.612 51.5234 274.449 51.5234H468.073C471.909 51.5234 475.019 55.3198 475.019 60.0028V258.207C475.019 262.89 471.909 266.686 468.073 266.686H274.449C270.612 266.686 267.502 262.89 267.502 258.207V60.0028Z" fill="white"/>
</g>
<path d="M289.237 76.7308L289.97 74.632H293.307L294.044 76.7308H295.761L292.631 68.2192H290.646L287.52 76.7308H289.237ZM290.403 73.3935L291.604 69.9648H291.673L292.874 73.3935H290.403Z" fill="#435589"/>
<path d="M296.861 79.1247H298.43V75.7251H298.495C298.742 76.1905 299.258 76.843 300.402 76.843C301.972 76.843 303.146 75.6502 303.146 73.5473C303.146 71.4194 301.937 70.264 300.398 70.264C299.223 70.264 298.734 70.9414 298.495 71.4028H298.404V70.3471H296.861V79.1247ZM298.4 73.539C298.4 72.3005 298.955 71.4984 299.965 71.4984C301.009 71.4984 301.547 72.3503 301.547 73.539C301.547 74.7359 301.001 75.6087 299.965 75.6087C298.963 75.6087 298.4 74.7775 298.4 73.539Z" fill="#435589"/>
<path d="M304.49 79.1247H306.059V75.7251H306.124C306.371 76.1905 306.887 76.843 308.032 76.843C309.601 76.843 310.776 75.6502 310.776 73.5473C310.776 71.4194 309.566 70.264 308.027 70.264C306.853 70.264 306.363 70.9414 306.124 71.4028H306.033V70.3471H304.49V79.1247ZM306.029 73.539C306.029 72.3005 306.584 71.4984 307.594 71.4984C308.639 71.4984 309.176 72.3503 309.176 73.539C309.176 74.7359 308.63 75.6087 307.594 75.6087C306.593 75.6087 306.029 74.7775 306.029 73.539Z" fill="#435589"/>
<path d="M312.119 76.7308H313.689V72.9779C313.689 72.1675 314.326 71.5939 315.189 71.5939C315.453 71.5939 315.782 71.6397 315.917 71.6812V70.2973C315.774 70.2723 315.527 70.2557 315.353 70.2557C314.59 70.2557 313.953 70.6713 313.71 71.4111H313.641V70.3471H312.119V76.7308Z" fill="#435589"/>
<path d="M319.589 76.8555C321.54 76.8555 322.78 75.538 322.78 73.5639C322.78 71.5856 321.54 70.264 319.589 70.264C317.639 70.264 316.399 71.5856 316.399 73.5639C316.399 75.538 317.639 76.8555 319.589 76.8555ZM319.598 75.6502C318.519 75.6502 317.99 74.7276 317.99 73.5598C317.99 72.3919 318.519 71.4568 319.598 71.4568C320.66 71.4568 321.189 72.3919 321.189 73.5598C321.189 74.7276 320.66 75.6502 319.598 75.6502Z" fill="#435589"/>
<path d="M329.833 70.3471H328.164L326.629 75.0892H326.56L325.03 70.3471H323.356L325.728 76.7308H327.461L329.833 70.3471Z" fill="#435589"/>
<path d="M332.644 76.8597C333.688 76.8597 334.313 76.39 334.599 75.8539H334.651V76.7308H336.159V72.4584C336.159 70.771 334.724 70.264 333.454 70.264C332.054 70.264 330.979 70.8625 330.632 72.0262L332.098 72.2257C332.254 71.7893 332.696 71.4152 333.463 71.4152C334.191 71.4152 334.59 71.7727 334.59 72.4002V72.4252C334.59 72.8574 334.118 72.8782 332.943 72.9987C331.651 73.1317 330.416 73.5016 330.416 74.9396C330.416 76.1947 331.374 76.8597 332.644 76.8597ZM333.051 75.7541C332.397 75.7541 331.929 75.4674 331.929 74.9146C331.929 74.3369 332.453 74.0959 333.155 74.0003C333.567 73.9463 334.391 73.8465 334.594 73.6886V74.4408C334.594 75.1515 333.996 75.7541 333.051 75.7541Z" fill="#435589"/>
<path d="M339.306 68.2192H337.737V76.7308H339.306V68.2192Z" fill="#435589"/>
<path d="M346.182 72.0345C345.966 70.9539 345.064 70.264 343.504 70.264C341.9 70.264 340.807 71.0204 340.812 72.2007C340.807 73.1317 341.406 73.7468 342.684 74.0003L343.82 74.2289C344.431 74.3577 344.717 74.5946 344.717 74.9562C344.717 75.3926 344.223 75.7209 343.478 75.7209C342.758 75.7209 342.29 75.4217 342.155 74.8481L340.625 74.9894C340.82 76.1614 341.848 76.8555 343.482 76.8555C345.146 76.8555 346.321 76.0284 346.326 74.819C346.321 73.9089 345.71 73.352 344.453 73.0901L343.317 72.8574C342.641 72.7119 342.372 72.4875 342.377 72.1176C342.372 71.6854 342.871 71.3861 343.525 71.3861C344.249 71.3861 344.631 71.7643 344.752 72.1841L346.182 72.0345Z" fill="#435589"/>
<path fill-rule="evenodd" clip-rule="evenodd" d="M459.995 90.2346H282.526C281.489 90.2346 280.648 91.0407 280.648 92.0351V136.148C280.648 137.142 281.489 137.949 282.526 137.949H459.995C461.032 137.949 461.873 137.142 461.873 136.148V92.0351C461.873 91.0407 461.032 90.2346 459.995 90.2346ZM282.526 88.4341C280.452 88.4341 278.77 90.0463 278.77 92.0351V136.148C278.77 138.137 280.452 139.749 282.526 139.749H459.995C462.07 139.749 463.751 138.137 463.751 136.148V92.0351C463.751 90.0463 462.07 88.4341 459.995 88.4341H282.526Z" fill="#EAEFFF"/>
<path fill-rule="evenodd" clip-rule="evenodd" d="M459.995 148.752H282.526C281.489 148.752 280.648 149.558 280.648 150.552V194.665C280.648 195.66 281.489 196.466 282.526 196.466H459.995C461.032 196.466 461.873 195.66 461.873 194.665V150.552C461.873 149.558 461.032 148.752 459.995 148.752ZM282.526 146.951C280.452 146.951 278.77 148.564 278.77 150.552V194.665C278.77 196.654 280.452 198.266 282.526 198.266H459.995C462.07 198.266 463.751 196.654 463.751 194.665V150.552C463.751 148.564 462.07 146.951 459.995 146.951H282.526Z" fill="#EAEFFF"/>
<path fill-rule="evenodd" clip-rule="evenodd" d="M459.995 207.269H282.526C281.489 207.269 280.648 208.075 280.648 209.069V253.182C280.648 254.177 281.489 254.983 282.526 254.983H459.995C461.032 254.983 461.873 254.177 461.873 253.182V209.069C461.873 208.075 461.032 207.269 459.995 207.269ZM282.526 205.468C280.452 205.468 278.77 207.081 278.77 209.069V253.182C278.77 255.171 280.452 256.783 282.526 256.783H459.995C462.07 256.783 463.751 255.171 463.751 253.182V209.069C463.751 207.081 462.07 205.468 459.995 205.468H282.526Z" fill="#EAEFFF"/>
<path fill-rule="evenodd" clip-rule="evenodd" d="M292.386 119.943C292.386 119.198 293.016 118.593 293.794 118.593H338.866C339.644 118.593 340.274 119.198 340.274 119.943C340.274 120.689 339.644 121.294 338.866 121.294H293.794C293.016 121.294 292.386 120.689 292.386 119.943Z" fill="#C9D6F9"/>
<path fill-rule="evenodd" clip-rule="evenodd" d="M292.386 178.461C292.386 177.715 293.016 177.11 293.794 177.11H338.866C339.644 177.11 340.274 177.715 340.274 178.461C340.274 179.207 339.644 179.811 338.866 179.811H293.794C293.016 179.811 292.386 179.207 292.386 178.461Z" fill="#C9D6F9"/>
<path fill-rule="evenodd" clip-rule="evenodd" d="M292.386 236.978C292.386 236.232 293.016 235.627 293.794 235.627H338.866C339.644 235.627 340.274 236.232 340.274 236.978C340.274 237.723 339.644 238.328 338.866 238.328H293.794C293.016 238.328 292.386 237.723 292.386 236.978Z" fill="#C9D6F9"/>
<path fill-rule="evenodd" clip-rule="evenodd" d="M292.386 128.946C292.386 128.2 293.016 127.596 293.794 127.596H330.415C331.193 127.596 331.823 128.2 331.823 128.946C331.823 129.692 331.193 130.296 330.415 130.296H293.794C293.016 130.296 292.386 129.692 292.386 128.946Z" fill="#C9D6F9"/>
<path fill-rule="evenodd" clip-rule="evenodd" d="M292.386 187.463C292.386 186.717 293.016 186.113 293.794 186.113H330.415C331.193 186.113 331.823 186.717 331.823 187.463C331.823 188.209 331.193 188.814 330.415 188.814H293.794C293.016 188.814 292.386 188.209 292.386 187.463Z" fill="#C9D6F9"/>
<path fill-rule="evenodd" clip-rule="evenodd" d="M292.386 245.98C292.386 245.234 293.016 244.63 293.794 244.63H330.415C331.193 244.63 331.823 245.234 331.823 245.98C331.823 246.726 331.193 247.331 330.415 247.331H293.794C293.016 247.331 292.386 246.726 292.386 245.98Z" fill="#C9D6F9"/>
<path d="M296.769 111.841H297.547L297.55 111.036C299.124 110.927 300.026 110.097 300.03 108.919C300.026 107.67 298.952 107.101 297.822 106.844L297.58 106.784L297.595 104.776C298.181 104.875 298.559 105.212 298.618 105.719H299.927C299.905 104.6 298.988 103.784 297.602 103.658L297.606 102.838H296.828L296.824 103.658C295.449 103.791 294.458 104.6 294.462 105.764C294.462 106.798 295.229 107.392 296.465 107.698L296.795 107.779L296.78 109.907C296.124 109.808 295.651 109.45 295.603 108.813H294.264C294.315 110.132 295.262 110.916 296.773 111.036L296.769 111.841ZM297.558 109.907L297.573 107.976C298.24 108.163 298.666 108.409 298.669 108.908C298.666 109.429 298.229 109.801 297.558 109.907ZM296.802 106.594C296.296 106.439 295.834 106.183 295.841 105.683C295.845 105.23 296.201 104.878 296.817 104.776L296.802 106.594Z" fill="#435589"/>
<path d="M304.225 103.739H302.93L301.063 104.889V106.084L302.82 105.008H302.864V110.941H304.225V103.739Z" fill="#435589"/>
<path d="M308.909 111.078C310.721 111.081 311.803 109.71 311.803 107.347C311.803 104.998 310.714 103.64 308.909 103.64C307.105 103.64 306.019 104.994 306.015 107.347C306.015 109.706 307.097 111.078 308.909 111.078ZM308.909 109.977C307.974 109.977 307.387 109.077 307.391 107.347C307.394 105.631 307.977 104.727 308.909 104.727C309.844 104.727 310.428 105.631 310.431 107.347C310.431 109.077 309.848 109.977 308.909 109.977Z" fill="#435589"/>
<path d="M315.798 111.078C317.61 111.081 318.692 109.71 318.692 107.347C318.692 104.998 317.603 103.64 315.798 103.64C313.994 103.64 312.908 104.994 312.904 107.347C312.904 109.706 313.986 111.078 315.798 111.078ZM315.798 109.977C314.863 109.977 314.276 109.077 314.28 107.347C314.284 105.631 314.867 104.727 315.798 104.727C316.734 104.727 317.317 105.631 317.321 107.347C317.321 109.077 316.737 109.977 315.798 109.977Z" fill="#435589"/>
<path d="M296.769 170.358H297.547L297.55 169.553C299.124 169.444 300.026 168.614 300.03 167.436C300.026 166.188 298.952 165.618 297.822 165.361L297.58 165.301L297.595 163.293C298.181 163.392 298.559 163.729 298.618 164.236H299.927C299.905 163.118 298.988 162.302 297.602 162.175L297.606 161.356H296.828L296.824 162.175C295.449 162.309 294.458 163.118 294.462 164.282C294.462 165.315 295.229 165.91 296.465 166.216L296.795 166.297L296.78 168.424C296.124 168.326 295.651 167.967 295.603 167.331H294.264C294.315 168.649 295.262 169.433 296.773 169.553L296.769 170.358ZM297.558 168.424L297.573 166.494C298.24 166.68 298.666 166.926 298.669 167.425C298.666 167.946 298.229 168.319 297.558 168.424ZM296.802 165.111C296.296 164.957 295.834 164.7 295.841 164.201C295.845 163.747 296.201 163.395 296.817 163.293L296.802 165.111Z" fill="#435589"/>
<path d="M304.225 162.256H302.93L301.063 163.406V164.602L302.82 163.525H302.864V169.458H304.225V162.256Z" fill="#435589"/>
<path d="M308.744 169.557C310.332 169.557 311.44 168.523 311.44 167.091C311.44 165.706 310.435 164.707 309.071 164.707C308.462 164.707 307.922 164.939 307.644 165.256H307.6L307.816 163.346H311.048V162.256H306.69L306.298 165.97L307.526 166.163C307.779 165.896 308.256 165.716 308.707 165.72C309.533 165.723 310.127 166.307 310.123 167.123C310.127 167.928 309.547 168.502 308.744 168.502C308.066 168.502 307.519 168.09 307.471 167.499H306.151C306.188 168.695 307.277 169.557 308.744 169.557Z" fill="#435589"/>
<path d="M315.445 169.595C317.257 169.599 318.339 168.227 318.339 165.864C318.339 163.515 317.25 162.158 315.445 162.158C313.641 162.158 312.555 163.511 312.551 165.864C312.551 168.224 313.633 169.595 315.445 169.595ZM315.445 168.495C314.51 168.495 313.923 167.594 313.927 165.864C313.931 164.148 314.514 163.244 315.445 163.244C316.381 163.244 316.964 164.148 316.968 165.864C316.968 167.594 316.384 168.495 315.445 168.495Z" fill="#435589"/>
<path d="M296.769 228.875H297.547L297.55 228.07C299.124 227.961 300.026 227.131 300.03 225.953C300.026 224.704 298.952 224.135 297.822 223.878L297.58 223.818L297.595 221.81C298.181 221.909 298.559 222.246 298.618 222.753H299.927C299.905 221.634 298.988 220.819 297.602 220.692L297.606 219.873H296.828L296.824 220.692C295.449 220.826 294.458 221.634 294.462 222.798C294.462 223.832 295.229 224.427 296.465 224.733L296.795 224.813L296.78 226.941C296.124 226.843 295.651 226.484 295.603 225.847H294.264C294.315 227.166 295.262 227.95 296.773 228.07L296.769 228.875ZM297.558 226.941L297.573 225.01C298.24 225.197 298.666 225.443 298.669 225.942C298.666 226.463 298.229 226.836 297.558 226.941ZM296.802 223.628C296.296 223.474 295.834 223.217 295.841 222.718C295.845 222.264 296.201 221.912 296.817 221.81L296.802 223.628Z" fill="#435589"/>
<path d="M301.445 227.975H302.857L306.048 221.888V220.773H300.931V221.863H304.64V221.912L301.445 227.975Z" fill="#435589"/>
<path d="M309.743 228.073C311.331 228.073 312.439 227.039 312.439 225.608C312.439 224.223 311.434 223.224 310.069 223.224C309.46 223.224 308.921 223.456 308.642 223.773H308.598L308.815 221.863H312.046V220.773H307.689L307.296 224.486L308.525 224.68C308.778 224.413 309.255 224.233 309.706 224.237C310.531 224.24 311.125 224.824 311.122 225.64C311.125 226.445 310.546 227.018 309.743 227.018C309.064 227.018 308.518 226.607 308.47 226.016H307.149C307.186 227.212 308.276 228.073 309.743 228.073Z" fill="#435589"/>
<path d="M372.669 108.24C372.669 106.251 374.351 104.639 376.425 104.639H444.971C447.046 104.639 448.727 106.251 448.727 108.24V119.943C448.727 121.932 447.046 123.544 444.971 123.544H376.425C374.351 123.544 372.669 121.932 372.669 119.943V108.24Z" fill="#5FBC89"/>
<path d="M372.669 166.757C372.669 164.768 374.351 163.156 376.425 163.156H444.971C447.046 163.156 448.727 164.768 448.727 166.757V178.461C448.727 180.45 447.046 182.062 444.971 182.062H376.425C374.351 182.062 372.669 180.45 372.669 178.461V166.757Z" fill="#EAEFFF"/>
<path d="M372.669 225.274C372.669 223.285 374.351 221.673 376.425 221.673H444.971C447.046 221.673 448.727 223.285 448.727 225.274V236.978C448.727 238.966 447.046 240.579 444.971 240.579H376.425C374.351 240.579 372.669 238.966 372.669 236.978V225.274Z" fill="#EAEFFF"/>
<path d="M391.905 116.342L392.412 114.889H394.723L395.233 116.342H396.421L394.254 110.45H392.88L390.716 116.342H391.905ZM392.712 114.032L393.543 111.658H393.591L394.423 114.032H392.712Z" fill="white"/>
<path d="M397.183 118H398.269V115.646H398.314C398.485 115.968 398.842 116.42 399.635 116.42C400.721 116.42 401.534 115.594 401.534 114.138C401.534 112.665 400.697 111.865 399.632 111.865C398.818 111.865 398.479 112.334 398.314 112.654H398.251V111.923H397.183V118ZM398.248 114.133C398.248 113.275 398.632 112.72 399.331 112.72C400.055 112.72 400.427 113.31 400.427 114.133C400.427 114.961 400.049 115.565 399.331 115.565C398.638 115.565 398.248 114.99 398.248 114.133Z" fill="white"/>
<path d="M402.465 118H403.551V115.646H403.596C403.767 115.968 404.124 116.42 404.916 116.42C406.003 116.42 406.816 115.594 406.816 114.138C406.816 112.665 405.979 111.865 404.913 111.865C404.1 111.865 403.761 112.334 403.596 112.654H403.533V111.923H402.465V118ZM403.53 114.133C403.53 113.275 403.914 112.72 404.613 112.72C405.337 112.72 405.709 113.31 405.709 114.133C405.709 114.961 405.331 115.565 404.613 115.565C403.92 115.565 403.53 114.99 403.53 114.133Z" fill="white"/>
<path d="M407.746 116.342H408.833V113.744C408.833 113.183 409.274 112.786 409.871 112.786C410.054 112.786 410.282 112.818 410.375 112.846V111.888C410.276 111.871 410.105 111.86 409.985 111.86C409.457 111.86 409.016 112.147 408.848 112.659H408.8V111.923H407.746V116.342Z" fill="white"/>
<path d="M412.918 116.429C414.268 116.429 415.127 115.517 415.127 114.15C415.127 112.78 414.268 111.865 412.918 111.865C411.567 111.865 410.709 112.78 410.709 114.15C410.709 115.517 411.567 116.429 412.918 116.429ZM412.924 115.594C412.177 115.594 411.81 114.955 411.81 114.147C411.81 113.338 412.177 112.691 412.924 112.691C413.659 112.691 414.025 113.338 414.025 114.147C414.025 114.955 413.659 115.594 412.924 115.594Z" fill="white"/>
<path d="M420.009 111.923H418.854L417.792 115.206H417.744L416.684 111.923H415.526L417.167 116.342H418.368L420.009 111.923Z" fill="white"/>
<path d="M422.645 116.429C423.719 116.429 424.458 115.925 424.65 115.157L423.635 115.048C423.488 115.422 423.128 115.617 422.66 115.617C421.958 115.617 421.493 115.174 421.484 114.417H424.695V114.098C424.695 112.547 423.722 111.865 422.588 111.865C421.267 111.865 420.406 112.795 420.406 114.158C420.406 115.545 421.255 116.429 422.645 116.429ZM421.487 113.715C421.52 113.151 421.955 112.677 422.603 112.677C423.227 112.677 423.647 113.114 423.653 113.715H421.487Z" fill="white"/>
<path d="M427.324 116.42C428.117 116.42 428.474 115.968 428.645 115.646H428.711V116.342H429.779V110.45H428.69V112.654H428.645C428.48 112.334 428.141 111.865 427.327 111.865C426.262 111.865 425.425 112.665 425.425 114.138C425.425 115.594 426.238 116.42 427.324 116.42ZM427.627 115.565C426.91 115.565 426.532 114.961 426.532 114.133C426.532 113.31 426.904 112.72 427.627 112.72C428.327 112.72 428.711 113.275 428.711 114.133C428.711 114.99 428.321 115.565 427.627 115.565Z" fill="white"/>
<path d="M393.933 174.859H395.046V172.868H396.222C397.642 172.868 398.404 172.051 398.404 170.918C398.404 169.793 397.651 168.967 396.237 168.967H393.933V174.859ZM395.046 171.991V169.859H396.066C396.901 169.859 397.27 170.29 397.27 170.918C397.27 171.545 396.901 171.991 396.072 171.991H395.046Z" fill="#C9D6F9"/>
<path d="M401.298 174.946C402.372 174.946 403.11 174.442 403.303 173.674L402.288 173.565C402.141 173.939 401.781 174.134 401.313 174.134C400.611 174.134 400.145 173.691 400.136 172.934H403.348V172.615C403.348 171.064 402.375 170.382 401.241 170.382C399.92 170.382 399.059 171.312 399.059 172.676C399.059 174.062 399.908 174.946 401.298 174.946ZM400.139 172.232C400.172 171.668 400.608 171.194 401.256 171.194C401.88 171.194 402.3 171.631 402.306 172.232H400.139Z" fill="#C9D6F9"/>
<path d="M405.353 172.27C405.353 171.631 405.755 171.263 406.328 171.263C406.889 171.263 407.226 171.617 407.226 172.207V174.859H408.312V172.045C408.315 170.987 407.685 170.382 406.733 170.382C406.043 170.382 405.569 170.699 405.359 171.191H405.305V170.44H404.267V174.859H405.353V172.27Z" fill="#C9D6F9"/>
<path d="M411.127 174.937C411.919 174.937 412.276 174.485 412.447 174.163H412.513V174.859H413.582V168.967H412.492V171.171H412.447C412.282 170.851 411.943 170.382 411.13 170.382C410.065 170.382 409.227 171.182 409.227 172.655C409.227 174.111 410.041 174.937 411.127 174.937ZM411.43 174.083C410.713 174.083 410.335 173.478 410.335 172.65C410.335 171.827 410.707 171.237 411.43 171.237C412.129 171.237 412.513 171.792 412.513 172.65C412.513 173.507 412.123 174.083 411.43 174.083Z" fill="#C9D6F9"/>
<path d="M414.739 174.859H415.826V170.44H414.739V174.859ZM415.286 169.813C415.631 169.813 415.913 169.559 415.913 169.249C415.913 168.935 415.631 168.682 415.286 168.682C414.938 168.682 414.655 168.935 414.655 169.249C414.655 169.559 414.938 169.813 415.286 169.813Z" fill="#C9D6F9"/>
<path d="M418.029 172.27C418.029 171.631 418.431 171.263 419.005 171.263C419.566 171.263 419.902 171.617 419.902 172.207V174.859H420.988V172.045C420.991 170.987 420.361 170.382 419.41 170.382C418.72 170.382 418.245 170.699 418.035 171.191H417.981V170.44H416.943V174.859H418.029V172.27Z" fill="#C9D6F9"/>
<path d="M424.097 176.609C425.343 176.609 426.261 176.062 426.261 174.931V170.44H425.19V171.171H425.13C424.965 170.851 424.62 170.382 423.806 170.382C422.741 170.382 421.904 171.182 421.904 172.635C421.904 174.077 422.741 174.796 423.803 174.796C424.593 174.796 424.962 174.39 425.13 174.065H425.184V174.903C425.184 175.553 424.734 175.82 424.115 175.82C423.461 175.82 423.173 175.524 423.041 175.265L422.063 175.492C422.261 176.111 422.924 176.609 424.097 176.609ZM424.106 173.979C423.389 173.979 423.011 173.444 423.011 172.629C423.011 171.827 423.383 171.237 424.106 171.237C424.806 171.237 425.19 171.792 425.19 172.629C425.19 173.473 424.8 173.979 424.106 173.979Z" fill="#C9D6F9"/>
<path d="M393.933 233.377H395.046V231.386H396.222C397.642 231.386 398.404 230.568 398.404 229.435C398.404 228.31 397.651 227.484 396.237 227.484H393.933V233.377ZM395.046 230.508V228.376H396.066C396.901 228.376 397.27 228.808 397.27 229.435C397.27 230.062 396.901 230.508 396.072 230.508H395.046Z" fill="#C9D6F9"/>
<path d="M401.298 233.463C402.372 233.463 403.11 232.959 403.303 232.191L402.288 232.082C402.141 232.456 401.781 232.652 401.313 232.652C400.611 232.652 400.145 232.209 400.136 231.452H403.348V231.132C403.348 229.582 402.375 228.9 401.241 228.9C399.92 228.9 399.059 229.829 399.059 231.193C399.059 232.58 399.908 233.463 401.298 233.463ZM400.139 230.75C400.172 230.186 400.608 229.711 401.256 229.711C401.88 229.711 402.3 230.148 402.306 230.75H400.139Z" fill="#C9D6F9"/>
<path d="M405.353 230.787C405.353 230.148 405.755 229.78 406.328 229.78C406.889 229.78 407.226 230.134 407.226 230.724V233.377H408.312V230.563C408.315 229.504 407.685 228.9 406.733 228.9C406.043 228.9 405.569 229.216 405.359 229.708H405.305V228.957H404.267V233.377H405.353V230.787Z" fill="#C9D6F9"/>
<path d="M411.127 233.454C411.919 233.454 412.276 233.003 412.447 232.68H412.513V233.377H413.582V227.484H412.492V229.688H412.447C412.282 229.369 411.943 228.9 411.13 228.9C410.065 228.9 409.227 229.7 409.227 231.173C409.227 232.629 410.041 233.454 411.127 233.454ZM411.43 232.6C410.713 232.6 410.335 231.996 410.335 231.167C410.335 230.344 410.707 229.754 411.43 229.754C412.129 229.754 412.513 230.31 412.513 231.167C412.513 232.024 412.123 232.6 411.43 232.6Z" fill="#C9D6F9"/>
<path d="M414.739 233.377H415.826V228.957H414.739V233.377ZM415.286 228.33C415.631 228.33 415.913 228.077 415.913 227.766C415.913 227.452 415.631 227.199 415.286 227.199C414.938 227.199 414.655 227.452 414.655 227.766C414.655 228.077 414.938 228.33 415.286 228.33Z" fill="#C9D6F9"/>
<path d="M418.029 230.787C418.029 230.148 418.431 229.78 419.005 229.78C419.566 229.78 419.902 230.134 419.902 230.724V233.377H420.988V230.563C420.991 229.504 420.361 228.9 419.41 228.9C418.72 228.9 418.245 229.216 418.035 229.708H417.981V228.957H416.943V233.377H418.029V230.787Z" fill="#C9D6F9"/>
<path d="M424.097 235.126C425.343 235.126 426.261 234.579 426.261 233.449V228.957H425.19V229.688H425.13C424.965 229.369 424.62 228.9 423.806 228.9C422.741 228.9 421.904 229.7 421.904 231.153C421.904 232.594 422.741 233.313 423.803 233.313C424.593 233.313 424.962 232.908 425.13 232.583H425.184V233.42C425.184 234.07 424.734 234.338 424.115 234.338C423.461 234.338 423.173 234.041 423.041 233.782L422.063 234.01C422.261 234.628 422.924 235.126 424.097 235.126ZM424.106 232.496C423.389 232.496 423.011 231.961 423.011 231.147C423.011 230.344 423.383 229.754 424.106 229.754C424.806 229.754 425.19 230.31 425.19 231.147C425.19 231.99 424.8 232.496 424.106 232.496Z" fill="#C9D6F9"/>
</g>
<defs>
<filter id="filter0_d_163_1989" x="-95.2584" y="2.1001" width="280.759" height="215.473" filterUnits="userSpaceOnUse" color-interpolation-filters="sRGB">
<feFlood flood-opacity="0" result="BackgroundImageFix"/>
<feColorMatrix in="SourceAlpha" type="matrix" values="0 0 0 0 0 0 0 0 0 0 0 0 0 0 0 0 0 0 127 0" result="hardAlpha"/>
<feOffset dy="4"/>
<feGaussianBlur stdDeviation="10"/>
<feComposite in2="hardAlpha" operator="out"/>
<feColorMatrix type="matrix" values="0 0 0 0 0.0491667 0 0 0 0 0.0997381 0 0 0 0 0.245833 0 0 0 0.1 0"/>
<feBlend mode="normal" in2="BackgroundImageFix" result="effect1_dropShadow_163_1989"/>
<feBlend mode="normal" in="SourceGraphic" in2="effect1_dropShadow_163_1989" result="shape"/>
</filter>
<filter id="filter1_d_163_1989" x="247.502" y="35.5234" width="247.516" height="255.163" filterUnits="userSpaceOnUse" color-interpolation-filters="sRGB">
<feFlood flood-opacity="0" result="BackgroundImageFix"/>
<feColorMatrix in="SourceAlpha" type="matrix" values="0 0 0 0 0 0 0 0 0 0 0 0 0 0 0 0 0 0 127 0" result="hardAlpha"/>
<feOffset dy="4"/>
<feGaussianBlur stdDeviation="10"/>
<feComposite in2="hardAlpha" operator="out"/>
<feColorMatrix type="matrix" values="0 0 0 0 0.0491667 0 0 0 0 0.0997381 0 0 0 0 0.245833 0 0 0 0.1 0"/>
<feBlend mode="normal" in2="BackgroundImageFix" result="effect1_dropShadow_163_1989"/>
<feBlend mode="normal" in="SourceGraphic" in2="effect1_dropShadow_163_1989" result="shape"/>
</filter>
<linearGradient id="paint0_linear_163_1989" x1="230.5" y1="0.906256" x2="343.301" y2="265.46" gradientUnits="userSpaceOnUse">
<stop stop-color="#C7ADFF"/>
<stop offset="1" stop-color="#887FF0"/>
</linearGradient>
<linearGradient id="paint1_linear_163_1989" x1="311.822" y1="188.567" x2="134.054" y2="68.9384" gradientUnits="userSpaceOnUse">
<stop stop-color="#4555E3"/>
<stop offset="1" stop-color="#4555E3" stop-opacity="0"/>
</linearGradient>
<linearGradient id="paint2_linear_163_1989" x1="329.063" y1="163.772" x2="170.899" y2="60.5448" gradientUnits="userSpaceOnUse">
<stop stop-color="#4555E3"/>
<stop offset="1" stop-color="#4555E3" stop-opacity="0"/>
</linearGradient>
</defs>
</svg>
