<svg width="56" height="51" viewBox="0 0 56 51" fill="none" xmlns="http://www.w3.org/2000/svg">
<path d="M14.6286 45.3888C17.4673 45.3888 19.7686 43.2901 19.7686 40.7013C19.7686 38.1125 17.4673 36.0138 14.6286 36.0138C11.7898 36.0138 9.48853 38.1125 9.48853 40.7013C9.48853 43.2901 11.7898 45.3888 14.6286 45.3888Z" stroke="black" stroke-width="3.4267" stroke-linecap="round" stroke-linejoin="round"/>
<path d="M31.7621 15.7013L24.9088 9.45129L31.7621 3.20129M14.6287 14.1388V36.0138V14.1388Z" stroke="black" stroke-width="3.4267" stroke-linecap="round" stroke-linejoin="round"/>
<path d="M14.6286 14.1389C17.4673 14.1389 19.7686 12.0403 19.7686 9.45142C19.7686 6.86258 17.4673 4.76392 14.6286 4.76392C11.7898 4.76392 9.48853 6.86258 9.48853 9.45142C9.48853 12.0403 11.7898 14.1389 14.6286 14.1389Z" stroke="black" stroke-width="3.4267" stroke-linecap="round" stroke-linejoin="round"/>
<path d="M42.0421 45.3888C44.8809 45.3888 47.1822 43.2901 47.1822 40.7013C47.1822 38.1125 44.8809 36.0138 42.0421 36.0138C39.2034 36.0138 36.9021 38.1125 36.9021 40.7013C36.9021 43.2901 39.2034 45.3888 42.0421 45.3888Z" stroke="black" stroke-width="3.4267" stroke-linecap="round" stroke-linejoin="round"/>
<path d="M26.6221 9.45129H35.6172C37.3212 9.45129 38.9554 10.0686 40.1604 11.1675C41.3653 12.2663 42.0422 13.7567 42.0422 15.3107V36.0138" stroke="black" stroke-width="3.4267" stroke-linecap="round" stroke-linejoin="round"/>
</svg>
