<svg width="51" height="51" viewBox="0 0 51 51" fill="none" xmlns="http://www.w3.org/2000/svg">
<path d="M8.71593 25.8384C8.88267 25.8382 9.04652 25.7948 9.19151 25.7124C9.30123 25.6499 9.39753 25.5663 9.47487 25.4665C9.5522 25.3667 9.60906 25.2526 9.64218 25.1307C9.6753 25.0088 9.68403 24.8816 9.66786 24.7564C9.65169 24.6312 9.61094 24.5103 9.54796 24.4009C7.94054 21.6118 7.8087 19.3111 8.82042 17.565C10.213 15.1655 14.0558 14.2788 19.1007 15.1929C19.3512 15.2382 19.6095 15.1825 19.819 15.0379C20.0286 14.8934 20.1723 14.6717 20.2189 14.4214C20.2414 14.2972 20.2393 14.1698 20.2125 14.0464C20.1858 13.923 20.135 13.8061 20.0631 13.7024C19.9912 13.5986 19.8995 13.51 19.7934 13.4417C19.6872 13.3734 19.5687 13.3267 19.4444 13.3042C16.5939 12.7886 13.9757 12.7984 11.8868 13.3335C9.70909 13.8911 8.07823 15.021 7.15538 16.603C5.78819 18.9653 5.91515 21.9478 7.87999 25.355C7.96435 25.5021 8.0861 25.6243 8.23291 25.7092C8.37971 25.7941 8.54635 25.8387 8.71593 25.8384ZM35.5567 14.9722C38.7052 15.0132 40.6944 15.8814 41.6886 17.5952C43.0763 19.9859 41.9347 23.729 38.6349 27.607C38.5162 27.7466 38.44 27.9174 38.4153 28.099C38.3906 28.2806 38.4185 28.4655 38.4957 28.6318C38.5729 28.7981 38.6961 28.9387 38.8507 29.0371C39.0054 29.1355 39.185 29.1876 39.3683 29.187C39.5078 29.1872 39.6458 29.157 39.7726 29.0987C39.8993 29.0404 40.012 28.9552 40.1026 28.8491C41.9698 26.6548 43.2618 24.4019 43.838 22.3345C44.4376 20.1861 44.2706 18.2124 43.3497 16.6333C42.0021 14.3111 39.4308 13.103 35.5773 13.0523H35.5636C35.309 13.0507 35.0642 13.1504 34.8831 13.3293C34.702 13.5082 34.5993 13.7518 34.5978 14.0064C34.5962 14.261 34.6959 14.5057 34.8748 14.6869C35.0537 14.868 35.2973 14.9706 35.5519 14.9722H35.5567ZM32.1251 41.4527C31.9066 41.3224 31.6455 41.2837 31.3986 41.3449C31.1517 41.4062 30.939 41.5625 30.8068 41.7798C29.2042 44.4312 27.2355 45.8911 25.2628 45.8911C22.4806 45.8911 19.7941 43.0288 18.0626 38.2329C17.9755 37.9938 17.7974 37.7987 17.567 37.6904C17.3367 37.5821 17.0729 37.5693 16.8331 37.6548C16.7138 37.6967 16.6039 37.7618 16.5098 37.8463C16.4157 37.9308 16.3392 38.0331 16.2848 38.1473C16.2303 38.2614 16.199 38.3852 16.1925 38.5115C16.1861 38.6379 16.2046 38.7642 16.2472 38.8833C17.2237 41.5952 18.5392 43.8394 20.0558 45.3736C21.629 46.9693 23.4298 47.815 25.2628 47.815C27.9366 47.815 30.4913 46.0249 32.4552 42.7749C32.5205 42.6668 32.5637 42.5468 32.5825 42.4219C32.6012 42.297 32.5951 42.1696 32.5644 42.0471C32.5337 41.9246 32.4791 41.8093 32.4037 41.708C32.3283 41.6066 32.2336 41.5212 32.1251 41.4566V41.4527ZM42.4015 33.9966C41.885 33.994 41.3758 34.1189 40.9191 34.3603C40.4625 34.6016 40.0724 34.9519 39.7836 35.3802C39.4948 35.8084 39.3161 36.3013 39.2634 36.8151C39.2107 37.3289 39.2856 37.8478 39.4816 38.3257C35.3995 40.23 27.7823 38.7935 20.7442 34.7495C17.5304 32.9038 14.6739 30.6616 12.4825 28.2661C12.3101 28.0788 12.0707 27.9671 11.8164 27.9552C11.562 27.9433 11.3133 28.0322 11.1241 28.2027C11.0304 28.2873 10.9543 28.3897 10.9004 28.504C10.8464 28.6182 10.8156 28.742 10.8097 28.8681C10.8038 28.9943 10.8229 29.1204 10.866 29.2392C10.9091 29.358 10.9752 29.467 11.0607 29.5601C13.3839 32.0991 16.4005 34.4702 19.7843 36.4136C23.7179 38.6724 27.8185 40.1861 31.6427 40.7896C32.7729 40.973 33.9157 41.068 35.0607 41.0738C37.3185 41.0738 39.2599 40.6538 40.7745 39.8247C41.1892 40.078 41.657 40.2317 42.1412 40.2738C42.6253 40.3159 43.1126 40.2452 43.5648 40.0673C44.017 39.8894 44.4218 39.6091 44.7475 39.2484C45.0732 38.8877 45.3108 38.4565 45.4417 37.9885C45.5727 37.5205 45.5934 37.0286 45.5022 36.5512C45.4111 36.0739 45.2105 35.6242 44.9163 35.2374C44.6221 34.8506 44.2423 34.5373 43.8066 34.322C43.371 34.1067 42.8913 33.9953 42.4054 33.9966H42.4015ZM42.4015 38.3579C42.1243 38.3579 41.8552 38.2643 41.6378 38.0923C41.5779 38.0096 41.5054 37.9368 41.423 37.8765C41.2536 37.656 41.1639 37.3847 41.1684 37.1067C41.1729 36.8287 41.2712 36.5604 41.4476 36.3455C41.6239 36.1305 41.8678 35.9816 42.1395 35.9228C42.4112 35.8641 42.6948 35.899 42.9442 36.022C43.1936 36.1449 43.394 36.3486 43.5129 36.5999C43.6317 36.8512 43.6621 37.1354 43.5989 37.4061C43.5358 37.6769 43.3829 37.9183 43.1652 38.0911C42.9474 38.2639 42.6775 38.358 42.3995 38.3579H42.4015Z" fill="black"/>
<path d="M8.25992 34.0014C8.31559 31.9252 9.47184 29.4116 11.549 26.8569C13.8136 24.0786 17.0851 21.3881 20.7619 19.2739C24.0089 17.4086 27.1291 16.1586 30.339 15.4741C30.4642 15.4496 30.5833 15.4005 30.6893 15.3296C30.7953 15.2586 30.8861 15.1672 30.9564 15.0608C31.0267 14.9543 31.075 14.8349 31.0986 14.7095C31.1222 14.5842 31.1206 14.4554 31.0939 14.3307C31.0672 14.2059 31.0158 14.0878 30.9429 13.9831C30.87 13.8784 30.7769 13.7894 30.6692 13.7211C30.5615 13.6528 30.4412 13.6066 30.3154 13.5854C30.1896 13.5641 30.0609 13.5681 29.9367 13.5971C26.5334 14.3227 23.2199 15.6479 19.8009 17.6098C11.5802 22.3315 6.09293 29.2446 6.34293 34.52C5.71739 34.9336 5.25956 35.5564 5.05145 36.2769C4.84335 36.9973 4.89857 37.7684 5.20723 38.4518C5.51589 39.1353 6.05782 39.6865 6.73592 40.0067C7.41402 40.327 8.184 40.3953 8.9079 40.1995C9.6318 40.0037 10.2623 39.5565 10.6865 38.9381C11.1107 38.3197 11.3009 37.5704 11.2229 36.8246C11.1449 36.0787 10.8039 35.385 10.261 34.8677C9.71806 34.3504 9.00867 34.0433 8.25992 34.0014ZM8.08512 38.3579C7.84407 38.3561 7.60893 38.2831 7.40935 38.1479C7.20976 38.0127 7.05467 37.8214 6.96362 37.5982C6.87258 37.375 6.84965 37.1299 6.89774 36.8937C6.94583 36.6574 7.06278 36.4408 7.23384 36.2709C7.40491 36.1011 7.62243 35.9857 7.85898 35.9393C8.09553 35.8929 8.34052 35.9176 8.56306 36.0102C8.7856 36.1029 8.97573 36.2593 9.10948 36.4599C9.24323 36.6604 9.31461 36.8961 9.31461 37.1372C9.31306 37.4619 9.18275 37.7729 8.95226 38.0017C8.72177 38.2306 8.40992 38.3586 8.08512 38.3579Z" fill="black"/>
<path d="M25.2629 10.3423C25.7715 10.3436 26.273 10.2216 26.7242 9.9867C27.1754 9.75182 27.563 9.41108 27.8537 8.99365C29.6008 10.1353 31.174 12.4116 32.3273 15.4507C33.5968 18.8091 34.2648 22.812 34.2648 27.0269C34.2648 30.6577 33.758 34.0923 32.8 37.1441C32.7616 37.2641 32.7475 37.3907 32.7586 37.5163C32.7697 37.6418 32.8056 37.764 32.8644 37.8755C32.923 37.9878 33.0031 38.0873 33.1004 38.1685C33.1976 38.2496 33.3099 38.3107 33.4308 38.3482C33.674 38.4233 33.9371 38.3994 34.1627 38.2816C34.3884 38.1638 34.5584 37.9617 34.6359 37.7192C35.6535 34.4829 36.1916 30.8501 36.1916 27.0269C36.1916 22.4204 35.4328 18.0649 33.9972 14.4292C32.59 10.8667 30.6642 8.33545 28.4172 7.08936C28.3978 6.47006 28.1965 5.87019 27.8383 5.36461C27.4801 4.85902 26.981 4.47012 26.4032 4.24643C25.8254 4.02274 25.1945 3.97418 24.5892 4.1068C23.984 4.23942 23.4312 4.54735 22.9999 4.99216C22.5686 5.43697 22.2778 5.99896 22.1639 6.60799C22.05 7.21702 22.1179 7.84612 22.3593 8.41677C22.6007 8.98742 23.0047 9.47434 23.5211 9.81678C24.0375 10.1592 24.6433 10.342 25.2629 10.3423ZM25.2629 5.98096C25.5039 5.98269 25.7391 6.05576 25.9386 6.19094C26.1382 6.32613 26.2933 6.51737 26.3844 6.74058C26.4754 6.96378 26.4983 7.20894 26.4502 7.44515C26.4021 7.68136 26.2852 7.89805 26.1141 8.06789C25.9431 8.23773 25.7256 8.35312 25.489 8.39951C25.2525 8.44591 25.0075 8.42122 24.7849 8.32858C24.5624 8.23593 24.3722 8.07947 24.2385 7.87893C24.1048 7.67838 24.0334 7.44272 24.0334 7.20166C24.0349 6.87687 24.1652 6.56594 24.3957 6.3371C24.6262 6.10826 24.9381 5.98018 25.2629 5.98096ZM24.755 24.7017C24.1803 24.8248 23.6714 25.1564 23.3268 25.6326C22.9821 26.1088 22.826 26.6957 22.8886 27.2802C22.9513 27.8647 23.2281 28.4053 23.6659 28.7976C24.1036 29.1899 24.6711 29.4063 25.259 29.4048C25.4283 29.4046 25.5972 29.3866 25.7629 29.3511C26.0717 29.2885 26.3649 29.1651 26.6257 28.9882C26.8864 28.8113 27.1094 28.5844 27.2817 28.3206C27.454 28.0568 27.5722 27.7614 27.6294 27.4516C27.6866 27.1417 27.6817 26.8236 27.6149 26.5157C27.5482 26.2078 27.4209 25.9162 27.2406 25.6578C27.0602 25.3995 26.8303 25.1795 26.5642 25.0108C26.2982 24.842 26.0012 24.7278 25.6907 24.6747C25.3801 24.6216 25.0621 24.6308 24.755 24.7017Z" fill="black"/>
</svg>
